# xmcd CD database file
# Copyright (C) 1993-1998 Ti Kan
# 
# Track frame offsets:
#     150
#     8562
#     20810
#     44730
#     54607
#     76077
#     87300
#     108602
#     117692
#     131002
#     150225
#     164050
#     176932
#     187215
# 
# Disc length: 2647 seconds
# 
# Revision: 1
# Processed by: cddbd v1.4b41PL1 Copyright (c) Steve Scherf et al.
# Submitted via: DiscPlay 4.0.4
# 
DISCID=c60a550e
DTITLE=Memphis Slim - The Memphis Slim Collection
DYEAR=1900
DGENRE=
TTITLE0=Baby Please Come Home
TTITLE1=Sassy Mae
TTITLE2=Rock Me Baby
TTITLE3=Caledonia
TTITLE4=Strollin' Thru The Park
TTITLE5=Ballin' The Jack
TTITLE6=Forty Years Or More
TTITLE7=Pigalle Love
TTITLE8=Ramble This Highway
TTITLE9=Gone Again
TTITLE10=Piney Brown Blues
TTITLE11=Only Fools Have Fun
TTITLE12=Little Lonely Girl
TTITLE13=A Long Time Baby
EXTD=
EXTT0=
EXTT1=
EXTT2=
EXTT3=
EXTT4=
EXTT5=
EXTT6=
EXTT7=
EXTT8=
EXTT9=
EXTT10=
EXTT11=
EXTT12=
EXTT13=
PLAYORDER=
